<svg xmlns="http://www.w3.org/2000/svg" viewBox="0 0 1440 320"><path fill="#ffc200" fill-opacity="1" d="M0,192L30,208C60,224,120,256,180,272C240,288,300,288,360,261.3C420,235,480,181,540,181.3C600,181,660,235,720,240C780,245,840,203,900,202.7C960,203,1020,245,1080,256C1140,267,1200,245,1260,213.3C1320,181,1380,139,1410,117.3L1440,96L1440,320L1410,320C1380,320,1320,320,1260,320C1200,320,1140,320,1080,320C1020,320,960,320,900,320C840,320,780,320,720,320C660,320,600,320,540,320C480,320,420,320,360,320C300,320,240,320,180,320C120,320,60,320,30,320L0,320Z"></path></svg>